<svg width="15" height="14" viewBox="0 0 15 14" fill="none" xmlns="http://www.w3.org/2000/svg">
<path d="M9.07601 0C9.61252 1.61356 10.3279 2.91864 11.2221 3.8678C12.1162 4.81695 13.3905 5.62373 15 6.28814V7.71186C13.4128 8.35254 12.161 9.15932 11.2668 10.1085C10.3502 11.0814 9.61252 12.3864 9.07601 14L7.06408 13.5254C7.64531 11.8169 8.47243 10.5356 9.50075 9.6339C10.5291 8.7322 11.9151 8.13898 13.614 7.83051H0V6.16949H13.614C11.8703 5.83729 10.4844 5.22034 9.45604 4.31864C8.40537 3.41695 7.6006 2.15932 7.06408 0.498304L9.07601 0Z" fill="black"/>
</svg>
