<svg width="89" height="116" viewBox="0 0 89 116" fill="none" xmlns="http://www.w3.org/2000/svg">
<path d="M89 57.4814C78.7424 60.8793 70.4458 65.4098 64.4119 71.073C58.378 76.7362 53.2492 84.8063 49.0254 95H39.9746C35.9017 84.9478 30.7729 77.0194 24.739 71.3562C18.5542 65.5514 10.2576 60.8793 -7.15256e-07 57.4814L3.01695 44.7392C13.878 48.4203 22.0237 53.6587 27.7559 60.1714C33.4881 66.6841 37.2593 75.462 39.2203 86.2221L39.2203 0L49.7797 0L49.7797 86.2221C51.8915 75.1788 55.8136 66.4009 61.5458 59.8882C67.278 53.234 75.2729 48.1371 85.8322 44.7392L89 57.4814Z" fill="black"/>
<rect x="1" y="107" width="87" height="9" fill="black"/>
</svg>
