<svg width="23" height="18" viewBox="0 0 23 18" fill="none" xmlns="http://www.w3.org/2000/svg">
<path d="M0 2.93889C0 2.15945 0.302901 1.41193 0.842068 0.86078C1.38124 0.309632 2.1125 0 2.875 0H20.125C20.8875 0 21.6188 0.309632 22.1579 0.86078C22.6971 1.41193 23 2.15945 23 2.93889V14.6944C23 15.4739 22.6971 16.2214 22.1579 16.7726C21.6188 17.3237 20.8875 17.6333 20.125 17.6333H2.875C2.1125 17.6333 1.38124 17.3237 0.842068 16.7726C0.302901 16.2214 0 15.4739 0 14.6944V2.93889ZM2.875 1.46944C2.49375 1.46944 2.12812 1.62426 1.85853 1.89983C1.58895 2.17541 1.4375 2.54917 1.4375 2.93889V3.25776L11.5 9.42942L21.5625 3.25776V2.93889C21.5625 2.54917 21.411 2.17541 21.1415 1.89983C20.8719 1.62426 20.5062 1.46944 20.125 1.46944H2.875ZM21.5625 4.97113L14.7948 9.12231L21.5625 13.3793V4.97113ZM21.5136 15.075L13.4061 9.97459L11.5 11.1428L9.59387 9.97459L1.48638 15.0736C1.56806 15.3863 1.74846 15.6626 1.99955 15.8598C2.25064 16.0569 2.55838 16.1638 2.875 16.1639H20.125C20.4414 16.1639 20.749 16.0572 21.0001 15.8604C21.2512 15.6635 21.4317 15.3875 21.5136 15.075ZM1.4375 13.3793L8.20525 9.12231L1.4375 4.97113V13.3793Z" fill="black"/>
</svg>
