<svg width="76" height="75" viewBox="0 0 76 75" fill="none" xmlns="http://www.w3.org/2000/svg">
<path d="M1.42773 74.3672C1.19987 74.1068 1.03711 73.8138 0.939453 73.4883C0.841797 73.1953 0.841797 72.8861 0.939453 72.5605C1.03711 72.235 1.19987 71.9583 1.42773 71.7305L35.2656 37.8438L1.42773 4.00586C1.19987 3.74544 1.03711 3.45247 0.939453 3.12695C0.874349 2.80143 0.874349 2.49219 0.939453 2.19922C1.03711 1.8737 1.19987 1.59701 1.42773 1.36914C1.68815 1.10872 1.96484 0.945964 2.25781 0.880859C2.58333 0.783203 2.90885 0.783203 3.23438 0.880859C3.5599 0.945964 3.85286 1.10872 4.11328 1.36914L38 35.207L71.8379 1.36914C72.0658 1.10872 72.3424 0.945964 72.668 0.880859C72.9935 0.783203 73.3027 0.783203 73.5957 0.880859C73.9212 0.945964 74.2142 1.10872 74.4746 1.36914C74.735 1.59701 74.8978 1.8737 74.9629 2.19922C75.0605 2.49219 75.0605 2.80143 74.9629 3.12695C74.8978 3.45247 74.735 3.74544 74.4746 4.00586L40.6367 37.8438L74.4746 71.7305C74.735 71.9583 74.8978 72.235 74.9629 72.5605C75.0605 72.8861 75.0605 73.1953 74.9629 73.4883C74.8978 73.8138 74.735 74.1068 74.4746 74.3672C74.2142 74.6276 73.9212 74.7904 73.5957 74.8555C73.3027 74.9531 72.9935 74.9531 72.668 74.8555C72.3424 74.7578 72.0658 74.5951 71.8379 74.3672L38 40.5293L4.11328 74.3672C3.85286 74.5951 3.5599 74.7578 3.23438 74.8555C2.94141 74.9531 2.63216 74.9531 2.30664 74.8555C1.98112 74.7578 1.68815 74.5951 1.42773 74.3672Z" fill="#F3F3F3"/>
</svg>
