<svg width="1728" height="349" viewBox="0 0 1728 349" fill="none" xmlns="http://www.w3.org/2000/svg">
<rect width="1728" height="349" fill="black"/>
<g clip-path="url(#clip0_381_3)">
<mask id="mask0_381_3" style="mask-type:luminance" maskUnits="userSpaceOnUse" x="1182" y="122" width="118" height="117">
<path d="M1299.02 122.356H1182.19V238.788H1299.02V122.356Z" fill="white"/>
</mask>
<g mask="url(#mask0_381_3)">
<path d="M1240.59 220.98C1218.19 220.98 1200.06 202.888 1200.06 180.591C1200.06 169.433 1204.6 159.335 1211.94 152.023C1219.28 144.71 1229.41 140.183 1240.61 140.183C1263 140.183 1281.13 158.274 1281.13 180.572C1281.13 191.73 1276.59 201.827 1269.25 209.14C1261.91 216.452 1251.78 220.98 1240.59 220.98ZM1299 180.572C1299 148.423 1272.84 122.356 1240.59 122.356H1182.17L1199.28 139.406C1188.71 149.939 1182.17 164.488 1182.17 180.572C1182.17 212.72 1208.33 238.788 1240.59 238.788H1299L1281.89 221.738C1292.46 211.205 1299 196.656 1299 180.572Z" fill="white"/>
</g>
<mask id="mask1_381_3" style="mask-type:luminance" maskUnits="userSpaceOnUse" x="429" y="122" width="99" height="117">
<path d="M527.939 122.469H429V238.674H527.939V122.469Z" fill="white"/>
</mask>
<g mask="url(#mask1_381_3)">
<path d="M526.038 238.674C525.544 238.674 525.069 238.484 524.689 238.125L457.779 171.422C457.037 170.683 457.037 169.489 457.779 168.75C458.52 168.012 459.718 168.012 460.459 168.75L527.388 235.453C528.129 236.192 528.129 237.386 527.388 238.125C527.008 238.503 526.532 238.674 526.038 238.674Z" fill="white"/>
<path d="M497.83 192.961C497.335 192.961 496.86 192.772 496.48 192.412L429.551 125.709C428.81 124.97 428.81 123.776 429.551 123.038C430.292 122.299 431.49 122.299 432.231 123.038L499.16 189.74C499.902 190.479 499.902 191.673 499.16 192.412C498.78 192.791 498.305 192.961 497.811 192.961H497.83Z" fill="white"/>
</g>
<mask id="mask2_381_3" style="mask-type:luminance" maskUnits="userSpaceOnUse" x="674" y="122" width="117" height="117">
<path d="M790.485 122.792H674.533V238.352H790.485V122.792Z" fill="white"/>
</mask>
<g mask="url(#mask2_381_3)">
<path d="M732.509 238.219C700.613 238.219 674.666 212.36 674.666 180.572C674.666 148.783 700.613 122.924 732.509 122.924C764.405 122.924 790.352 148.783 790.352 180.572C790.352 212.36 764.405 238.219 732.509 238.219ZM732.509 126.713C702.704 126.713 678.468 150.867 678.468 180.572C678.468 210.277 702.704 234.431 732.509 234.431C762.314 234.431 786.55 210.277 786.55 180.572C786.55 150.867 762.314 126.713 732.509 126.713Z" fill="white"/>
<path d="M732.509 194.951C740.474 194.951 746.936 188.51 746.936 180.572C746.936 172.634 740.474 166.193 732.509 166.193C724.544 166.193 718.082 172.634 718.082 180.572C718.082 188.51 724.544 194.951 732.509 194.951Z" fill="white"/>
</g>
<mask id="mask3_381_3" style="mask-type:luminance" maskUnits="userSpaceOnUse" x="928" y="122" width="117" height="117">
<path d="M1044.48 122.792H928.638V238.352H1044.48V122.792Z" fill="white"/>
</mask>
<g mask="url(#mask3_381_3)">
<mask id="mask4_381_3" style="mask-type:luminance" maskUnits="userSpaceOnUse" x="928" y="122" width="117" height="117">
<path d="M1044.48 122.792H928.638V238.352H1044.48V122.792Z" fill="white"/>
</mask>
<g mask="url(#mask4_381_3)">
<g opacity="0.25">
<mask id="mask5_381_3" style="mask-type:luminance" maskUnits="userSpaceOnUse" x="910" y="109" width="153" height="131">
<path d="M1062.31 109H910.732V240H1062.31V109Z" fill="white"/>
</mask>
<g mask="url(#mask5_381_3)">
<path d="M986.5 220.392C964.393 220.392 946.487 202.528 946.487 180.515C946.487 169.508 950.973 159.524 958.215 152.307C965.457 145.089 975.456 140.618 986.519 140.618C1008.63 140.618 1026.53 158.482 1026.53 180.496C1026.53 191.502 1022.05 201.486 1014.8 208.704C1007.56 215.922 997.563 220.392 986.5 220.392ZM1044.17 180.515C1044.17 148.783 1018.36 123.038 986.5 123.038H928.828L945.708 139.879C935.272 150.28 928.828 164.639 928.828 180.515C928.828 212.246 954.642 237.992 986.5 237.992H1044.17L1027.27 221.15C1037.71 210.75 1044.17 196.39 1044.17 180.515Z" fill="white"/>
</g>
</g>
<path d="M1044.44 238.333H928.657V122.943H1044.44V238.333ZM929.607 237.386H1043.49V123.89H929.607V237.386Z" fill="white"/>
<path d="M929.411 123.002L928.739 123.671L1043.49 238.03L1044.16 237.36L929.411 123.002Z" fill="white"/>
<path d="M986.5 220.336C964.393 220.336 946.392 202.414 946.392 180.363C946.392 158.312 964.374 140.391 986.5 140.391C1008.63 140.391 1026.61 158.312 1026.61 180.363C1026.61 202.414 1008.63 220.336 986.5 220.336ZM986.5 141.338C964.906 141.338 947.343 158.842 947.343 180.363C947.343 201.884 964.906 219.388 986.5 219.388C1008.09 219.388 1025.66 201.884 1025.66 180.363C1025.66 158.842 1008.09 141.338 986.5 141.338Z" fill="white"/>
<path d="M986.405 237.897C954.565 237.897 928.676 212.095 928.676 180.363C928.676 148.632 954.565 122.83 986.405 122.83C1018.24 122.83 1044.13 148.632 1044.13 180.363C1044.13 212.095 1018.24 237.897 986.405 237.897ZM986.405 123.777C955.098 123.777 929.626 149.162 929.626 180.363C929.626 211.565 955.098 236.95 986.405 236.95C1017.71 236.95 1043.18 211.565 1043.18 180.363C1043.18 149.162 1017.71 123.777 986.405 123.777Z" fill="white"/>
</g>
</g>
</g>
<defs>
<clipPath id="clip0_381_3">
<rect width="870" height="131" fill="white" transform="translate(429 109)"/>
</clipPath>
</defs>
</svg>
